<svg xmlns="http://www.w3.org/2000/svg" fill="#ffffff" class="bi bi-code-slash" viewBox="0 0 16 16" id="Code-Slash--Streamline-Bootstrap" height="16" width="16">
  <desc>
    Code Slash Streamline Icon: https://streamlinehq.com
  </desc>
  <path d="M10.478 1.647a0.5 0.5 0 1 0 -0.956 -0.294l-4 13a0.5 0.5 0 0 0 0.956 0.294zM4.854 4.146a0.5 0.5 0 0 1 0 0.708L1.707 8l3.147 3.146a0.5 0.5 0 0 1 -0.708 0.708l-3.5 -3.5a0.5 0.5 0 0 1 0 -0.708l3.5 -3.5a0.5 0.5 0 0 1 0.708 0m6.292 0a0.5 0.5 0 0 0 0 0.708L14.293 8l-3.147 3.146a0.5 0.5 0 0 0 0.708 0.708l3.5 -3.5a0.5 0.5 0 0 0 0 -0.708l-3.5 -3.5a0.5 0.5 0 0 0 -0.708 0" stroke-width="1"></path>
</svg>